<?xml version="1.0" standalone="no"?>
<!DOCTYPE svg PUBLIC "-//W3C//DTD SVG 20010904//EN"
 "http://www.w3.org/TR/2001/REC-SVG-20010904/DTD/svg10.dtd">
<svg version="1.0" xmlns="http://www.w3.org/2000/svg"
 width="57.000000pt" height="57.000000pt" viewBox="0 0 57.000000 57.000000"
 preserveAspectRatio="xMidYMid meet">

<g transform="translate(0.000000,57.000000) scale(0.100000,-0.100000)"
fill="#000000" stroke="none">
<path d="M110 359 l0 -68 53 -3 52 -3 0 -35 0 -35 -52 -3 c-38 -2 -53 -7 -53
-18 0 -11 16 -14 70 -14 l70 0 0 70 0 70 -55 0 -55 0 0 34 0 35 53 3 c38 2 52
7 52 18 0 12 -15 15 -67 16 l-68 2 0 -69z"/>
<path d="M327 424 c-4 -4 -7 -61 -7 -126 l0 -118 70 0 70 0 0 70 0 70 -35 0
c-24 0 -35 -5 -35 -15 0 -8 9 -15 20 -15 17 0 20 -7 20 -41 l0 -40 -37 3 -38
3 -3 88 -3 87 56 0 c47 0 55 3 55 18 0 16 -9 19 -63 21 -34 1 -66 -1 -70 -5z"/>
</g>
</svg>
